<?xml version="1.0" encoding="UTF-8" standalone="no"?>
<!-- Created with Inkscape (http://www.inkscape.org/) -->

<svg
   width="34.395836mm"
   height="34.395836mm"
   viewBox="0 0 34.395836 34.395836"
   version="1.1"
   id="svg5"
   inkscape:version="1.2.2 (732a01da63, 2022-12-09, custom)"
   sodipodi:docname="lc_lime_empty.svg"
   xmlns:inkscape="http://www.inkscape.org/namespaces/inkscape"
   xmlns:sodipodi="http://sodipodi.sourceforge.net/DTD/sodipodi-0.dtd"
   xmlns="http://www.w3.org/2000/svg"
   xmlns:svg="http://www.w3.org/2000/svg">
  <sodipodi:namedview
     id="namedview7"
     pagecolor="#505050"
     bordercolor="#eeeeee"
     borderopacity="1"
     inkscape:showpageshadow="0"
     inkscape:pageopacity="0"
     inkscape:pagecheckerboard="0"
     inkscape:deskcolor="#505050"
     inkscape:document-units="mm"
     showgrid="false"
     inkscape:zoom="2.8284271"
     inkscape:cx="110.83899"
     inkscape:cy="112.60676"
     inkscape:window-width="1920"
     inkscape:window-height="1016"
     inkscape:window-x="0"
     inkscape:window-y="0"
     inkscape:window-maximized="1"
     inkscape:current-layer="layer2" />
  <g
     inkscape:groupmode="layer"
     id="layer2"
     inkscape:label="Ebene 2">
    <circle
       style="display:inline;fill:none;stroke:#7898d8;stroke-width:0.529167;stroke-opacity:1"
       id="path496"
       cx="17.197916"
       cy="17.197916"
       r="16.933332"
       class="UnoptimicedTransforms" />
    <path
       id="path6672"
       style="display:inline;fill:#7898d8;fill-opacity:1;stroke:#7898d8;stroke-width:0.529167;stroke-opacity:1"
       d="M 19.958988,4.2364339 C 17.470743,4.184085 14.83948,5.4239287 13.578115,7.6103018 13.325837,9.548367 12.900852,6.6905756 12.068193,6.3199419 10.902521,5.1059168 8.964152,5.0295986 7.4383057,5.4761515 5.8162373,6.0848374 4.9406486,7.7046238 3.9664164,9.0373069 3.7008376,9.7123196 1.9828586,12.343586 3.4340749,10.7857 4.7717214,9.5875369 6.0780429,7.9998606 8.0437532,8.0034702 c 2.5701708,-0.28225 4.7779958,2.0050348 5.0200328,4.4668378 0.384351,2.553133 -1.040452,4.884104 -1.971442,7.158985 -0.632073,1.522738 -1.7177574,2.870665 -2.1920376,4.441892 -0.1519536,0.861173 -0.3039071,1.722346 -0.4558606,2.583519 2.0855662,-3.814426 4.1280702,-7.775221 4.6897892,-12.145774 0.301352,-1.678816 0.593225,-3.434528 0.506276,-5.1012359 2.325319,-2.357063 6.474229,-3.0594721 9.200472,-1.0231932 1.26853,1.4186134 0.606237,3.6212961 0.32706,5.3017411 -0.689919,2.344555 -1.689561,4.583682 -2.374477,6.930071 -1.67588,1.310615 -3.114975,3.138636 -5.228418,3.735445 -1.191321,-0.16588 -1.393879,-1.378978 -1.609355,0.269528 -0.112628,0.678002 -0.505946,1.374609 -0.446023,2.041173 1.185426,1.718965 3.118283,-0.311061 4.25856,-1.162211 0.724615,-0.424651 2.729351,-2.956781 1.955313,-0.903832 -0.833018,1.928229 0.465411,4.218633 2.66564,4.040086 2.314126,0.375158 4.656525,-0.96017 6.003233,-2.782215 0.774745,-1.230363 1.282771,-4.174749 1.450042,-4.602274 -0.369942,1.212735 0.449678,-1.359163 0.128818,-1.864324 0.02742,-1.988797 -2.389781,-2.894155 -3.974005,-2.015458 -1.742427,0.808925 -3.442518,1.761258 -4.913987,3.008446 1.357182,-3.69303 2.542406,-7.479832 3.195671,-11.3646811 C 24.530006,7.4058 24.463208,5.2096044 22.524457,4.7218974 21.710959,4.3913169 20.835386,4.2391798 19.958988,4.2364339 Z m 6.71587,15.8026531 c 1.815409,-0.195722 3.453903,2.396728 1.870249,3.654722 -1.57033,1.513355 -3.827629,2.516846 -6.022431,1.873083 -1.423154,0.03283 -3.20239,-2.220975 -1.332158,-2.943825 1.67677,-1.094269 3.440998,-2.386611 5.48434,-2.58398 z"
       class="UnoptimicedTransforms" />
    <path
       style="display:inline;fill:#8d894b;fill-opacity:1;stroke:#8d894b;stroke-width:0.00829669"
       d="m 81.84258,74.019954 c 0.0016,-0.004 0.04383,-0.121976 0.09393,-0.262183 0.05009,-0.140208 0.09161,-0.255456 0.09226,-0.256107 6.51e-4,-6.51e-4 0.01259,0.02353 0.02653,0.05373 l 0.02535,0.05491 0.04074,0.02601 c 0.02241,0.0143 0.04727,0.02946 0.05526,0.03368 0.01937,0.01023 0.0777,0.01828 0.107083,0.01478 0.01565,-0.0019 0.02219,-0.0014 0.01944,0.0013 -0.0023,0.0023 -0.03402,0.02612 -0.07052,0.05299 -0.03651,0.02688 -0.13848,0.102704 -0.226611,0.168503 -0.08813,0.0658 -0.161601,0.119634 -0.163266,0.119634 -0.0017,0 -0.0017,-0.0033 -1.82e-4,-0.0073 z"
       id="path1585"
       transform="scale(0.26458333)"
       class="UnoptimicedTransforms" />
    <path
       style="display:inline;fill:#8d894b;fill-opacity:1;stroke:#8d894b;stroke-width:0.0078125"
       d="m 50.178615,29.135819 c -0.06895,-0.148342 -0.164943,-0.357957 -0.164943,-0.360166 0,-9.18e-4 0.01011,0.0024 0.02246,0.0074 0.08117,0.03294 0.184563,0.01836 0.257919,-0.03636 0.007,-0.0053 0.01373,-0.0086 0.01487,-0.0075 0.0041,0.0041 -0.06855,0.508 -0.07406,0.513514 -7.07e-4,7.07e-4 -0.02602,-0.05192 -0.05624,-0.116954 z"
       id="path1587"
       transform="scale(0.26458333)"
       class="UnoptimicedTransforms" />
    <path
       style="display:inline;fill:#8d894b;fill-opacity:1;stroke:#8d894b;stroke-width:0.0078125"
       d="m 73.76061,92.168711 c -0.0045,-0.01281 -0.0515,-0.08256 -0.06032,-0.08945 -0.0027,-0.0021 -0.04453,-0.01491 -0.09287,-0.02837 -0.04834,-0.01346 -0.08996,-0.02559 -0.09249,-0.02694 -0.0027,-0.0014 0.04909,-0.04894 0.125176,-0.114808 0.135441,-0.117248 0.300632,-0.256736 0.30222,-0.255196 0.0024,0.0024 -0.14876,0.452841 -0.17374,0.51766 l -0.0037,0.0095 z"
       id="path1589"
       transform="scale(0.26458333)"
       class="UnoptimicedTransforms" />
  </g>
</svg>
